<svg width="176" height="50" viewBox="0 0 176 50" fill="none" xmlns="http://www.w3.org/2000/svg">
<path d="M16.1836 27.381C16.0991 27.8664 16.0251 28.278 15.9617 28.6157C15.9194 28.9323 15.8982 29.2278 15.8982 29.5022C15.8982 29.7766 15.93 30.0298 15.9934 30.262C16.0779 30.4731 16.2048 30.6419 16.3739 30.7686C16.5642 30.8741 16.8073 30.9269 17.1033 30.9269C17.5472 30.9269 18.0123 30.7475 18.4985 30.3886C18.9848 30.0087 19.471 29.4916 19.9572 28.8373C20.4646 28.1619 20.9509 27.3705 21.4159 26.4629L21.9233 28.0459C21.2045 29.2489 20.4752 30.3042 19.7353 31.2118C18.9953 32.0983 18.1814 32.7948 17.2935 33.3013C16.4056 33.7868 15.3803 34.0295 14.2176 34.0295C12.8857 34.0295 11.8604 33.6812 11.1416 32.9847C10.4228 32.2671 10.0634 31.3279 10.0634 30.167C10.0634 29.7449 10.0951 29.2911 10.1586 28.8057C10.222 28.2991 10.3277 27.6659 10.4757 26.9061L11.7124 20.5742C11.7758 20.3421 11.7547 20.1627 11.649 20.036C11.5644 19.8883 11.4059 19.7722 11.1733 19.6878C10.9619 19.6033 10.6871 19.54 10.3488 19.4978L10 19.4345L10.3488 17.4083H18.0546L16.1836 27.381ZM26.2677 27.6976C26.2043 28.1408 26.1409 28.5418 26.0775 28.9007C26.014 29.2384 25.9612 29.5444 25.9189 29.8188C25.8766 30.0932 25.8555 30.3148 25.8555 30.4836C25.8555 30.758 25.9295 30.9585 26.0775 31.0852C26.2466 31.2118 26.4791 31.2751 26.7751 31.2751C27.1134 31.2751 27.4305 31.2223 27.7264 31.1168C28.0224 31.0113 28.2232 30.9374 28.3289 30.8952L27.9484 33.048C27.6947 33.1747 27.3776 33.3119 26.9971 33.4596C26.6377 33.6074 26.2254 33.7234 25.7604 33.8079C25.2953 33.9134 24.7985 33.9662 24.2699 33.9662C23.0649 33.9662 22.103 33.6707 21.3842 33.0797C20.6866 32.4676 20.3378 31.5495 20.3378 30.3253C20.3378 30.2198 20.3378 30.1248 20.3378 30.0404C20.3589 29.9349 20.3695 29.8293 20.3695 29.7238C20.3906 29.5972 20.4118 29.4705 20.4329 29.3439L20.1475 29.8188L22.3673 17.4083H28.1387L26.2677 27.6976Z" fill="black"/>
<path d="M29.1031 36.2456H44.8001L44.3561 39H28.6592L29.1031 36.2456Z" fill="black"/>
<path d="M56.3002 23.8985V25.7664C55.5815 25.8719 54.9367 25.9985 54.3659 26.1463C53.8162 26.294 53.33 26.4734 52.9072 26.6845C52.4844 26.8956 52.1355 27.1383 51.8607 27.4127C51.607 27.6659 51.4062 27.972 51.2582 28.3308C51.1314 28.6685 51.0679 29.0273 51.0679 29.4072C51.0679 29.8926 51.1419 30.2937 51.2899 30.6103C51.459 30.9269 51.6916 31.1696 51.9876 31.3384C52.2835 31.4862 52.6323 31.56 53.034 31.56C53.5203 31.56 53.9642 31.4334 54.3659 31.1801C54.7675 30.9057 55.1269 30.5258 55.444 30.0404C55.7612 29.5549 56.036 28.9851 56.2685 28.3308L56.332 30.5153C56.0148 31.254 55.6132 31.8766 55.1269 32.3832C54.6407 32.8897 54.0488 33.2802 53.3511 33.5546C52.6746 33.829 51.8818 33.9662 50.9728 33.9662C49.8946 33.9662 48.9539 33.8079 48.1505 33.4913C47.3683 33.1536 46.7552 32.6681 46.3113 32.0349C45.8885 31.3806 45.6771 30.5892 45.6771 29.6605C45.6771 28.774 45.899 28.0142 46.343 27.381C46.8081 26.7478 47.4846 26.2096 48.3725 25.7664C49.2604 25.3231 50.3703 24.9538 51.7022 24.6583C53.034 24.3417 54.5667 24.0884 56.3002 23.8985ZM55.9831 33.6496V30.5153L55.6026 30.5786V21.9356C55.6026 21.3446 55.518 20.8697 55.3489 20.5109C55.1798 20.131 54.9155 19.8672 54.5561 19.7194C54.2179 19.5506 53.7951 19.4662 53.2877 19.4662C52.5266 19.4662 51.8924 19.635 51.385 19.9727C50.8988 20.2893 50.5289 20.6903 50.2752 21.1758C50.0849 20.9647 49.9792 20.7642 49.9581 20.5742C49.9369 20.3632 49.9686 20.1732 50.0532 20.0044C50.1589 19.8355 50.3174 19.6878 50.5289 19.5611C50.7403 19.4134 50.9939 19.3184 51.2899 19.2762V22.6638H46.787V19.2129C47.1041 18.9807 47.5692 18.7063 48.1822 18.3897C48.8165 18.052 49.6092 17.7565 50.5606 17.5033C51.5119 17.2289 52.6218 17.0917 53.8902 17.0917C54.9684 17.0917 55.9514 17.2078 56.8393 17.44C57.7484 17.651 58.5306 17.9782 59.1859 18.4214C59.8413 18.8646 60.3487 19.4451 60.7081 20.1627C61.0675 20.8592 61.2472 21.714 61.2472 22.7271V30.6736C61.2472 30.8846 61.3106 31.0535 61.4374 31.1801C61.5643 31.3068 61.744 31.4017 61.9765 31.4651C62.2091 31.5284 62.4839 31.5811 62.801 31.6234L62.9278 31.655V33.6496H55.9831Z" fill="black"/>
<path d="M77.3219 17.3766V22.2838C77.1528 22.2205 76.9625 22.1783 76.7511 22.1572C76.5608 22.115 76.3494 22.0833 76.1169 22.0622C75.8843 22.0411 75.6518 22.0306 75.4192 22.0306C74.933 22.0306 74.4785 22.0833 74.0557 22.1889C73.654 22.2733 73.2735 22.421 72.9141 22.6321C72.5758 22.8221 72.2693 23.0859 71.9944 23.4236C71.7196 23.7402 71.4659 24.1412 71.2334 24.6266V22.8221C71.5082 21.7245 71.8465 20.7536 72.2481 19.9094C72.671 19.0651 73.1889 18.4108 73.802 17.9465C74.4151 17.4611 75.1973 17.2183 76.1486 17.2183C76.4023 17.2183 76.6348 17.2394 76.8462 17.2817C77.0576 17.3028 77.2162 17.3344 77.3219 17.3766ZM64.4155 33.6496V31.7183H64.4472C64.9335 31.7183 65.3246 31.655 65.6205 31.5284C65.9377 31.4017 66.0962 31.1485 66.0962 30.7686V20.5426C66.0962 20.3315 66.0434 20.1627 65.9377 20.036C65.8531 19.9094 65.7051 19.8144 65.4937 19.7511C65.2823 19.6667 65.0075 19.5822 64.6692 19.4978L64.4155 19.4345V17.4083H71.5188V22.5688L71.8993 22.1889V31.1485C71.8993 31.3173 72.0156 31.444 72.2481 31.5284C72.4807 31.6128 72.7555 31.6656 73.0726 31.6867C73.3897 31.7078 73.6751 31.7183 73.9288 31.7183H74.2142V33.6496H64.4155Z" fill="black"/>
<path d="M89.2529 31.4967C90.014 31.4967 90.6693 31.3279 91.219 30.9902C91.7898 30.6314 92.276 30.1987 92.6777 29.6921C93.0794 29.1645 93.4176 28.6579 93.6924 28.1725L95.5951 29.5338C95.13 30.3992 94.5698 31.1696 93.9144 31.845C93.2802 32.4993 92.5086 33.0164 91.5995 33.3963C90.6905 33.7762 89.5911 33.9662 88.3016 33.9662C86.5258 33.9662 84.9508 33.6285 83.5766 32.9531C82.2025 32.2777 81.1243 31.3068 80.3421 30.0404C79.5599 28.774 79.1688 27.2755 79.1688 25.5448C79.1688 23.7929 79.5599 22.2944 80.3421 21.0491C81.1243 19.7828 82.2131 18.8119 83.6083 18.1365C85.0248 17.44 86.6843 17.0917 88.587 17.0917C89.792 17.0917 90.8384 17.2078 91.7264 17.44C92.6354 17.6721 93.3753 17.936 93.9461 18.2314C94.5381 18.5058 94.9609 18.7591 95.2146 18.9913V23.2336H90.8067V19.1812C91.0816 19.2023 91.3035 19.2868 91.4727 19.4345C91.6418 19.5611 91.7581 19.7194 91.8215 19.9094C91.9061 20.0782 91.9272 20.2682 91.8849 20.4793C91.8426 20.6692 91.7581 20.8275 91.6312 20.9541C91.3775 20.532 91.0181 20.1943 90.553 19.941C90.088 19.6667 89.5277 19.5295 88.8724 19.5295C88.069 19.5295 87.382 19.7722 86.8111 20.2576C86.2615 20.722 85.8387 21.4079 85.5427 22.3155C85.2467 23.202 85.0988 24.2784 85.0988 25.5448C85.0988 26.4734 85.1939 27.3071 85.3842 28.0459C85.5744 28.7846 85.8387 29.4072 86.1769 29.9138C86.5363 30.4203 86.9697 30.8108 87.4771 31.0852C88.0056 31.3595 88.5975 31.4967 89.2529 31.4967Z" fill="black"/>
<path d="M104.957 10.3483V31.4334C104.957 31.4967 105.031 31.5495 105.179 31.5917C105.348 31.6339 105.538 31.6656 105.75 31.6867C105.982 31.7078 106.193 31.7183 106.384 31.7183H106.479V33.6496H97.473V31.7183H97.5047C97.8218 31.7183 98.1072 31.6972 98.3609 31.655C98.6146 31.5917 98.8154 31.4967 98.9634 31.3701C99.1114 31.2223 99.1854 31.0218 99.1854 30.7686V13.4509C99.1854 13.2398 99.1325 13.071 99.0268 12.9443C98.9211 12.8177 98.7626 12.7122 98.5511 12.6277C98.3609 12.5433 98.0861 12.4694 97.7267 12.4061L97.473 12.3428V10.3483H104.957ZM117.419 33.6496H108.413V31.7183H108.445C108.656 31.7183 108.878 31.7183 109.111 31.7183C109.343 31.6972 109.534 31.6656 109.682 31.6234C109.851 31.56 109.935 31.4967 109.935 31.4334V22.5055C109.935 21.9778 109.872 21.5451 109.745 21.2074C109.639 20.8697 109.46 20.6164 109.206 20.4476C108.952 20.2787 108.614 20.1943 108.191 20.1943C107.684 20.1943 107.198 20.3421 106.733 20.6376C106.289 20.9119 105.866 21.3235 105.464 21.8723C105.084 22.421 104.703 23.107 104.323 23.9301L104.291 21.0175C104.693 20.1943 105.179 19.4978 105.75 18.9279C106.341 18.337 107.018 17.8832 107.779 17.5666C108.561 17.25 109.417 17.0917 110.348 17.0917C111.426 17.0917 112.367 17.3028 113.17 17.7249C113.973 18.1259 114.597 18.738 115.041 19.5611C115.506 20.3632 115.738 21.3657 115.738 22.5688V30.7686C115.738 31.0218 115.802 31.2223 115.929 31.3701C116.077 31.4967 116.278 31.5917 116.531 31.655C116.785 31.6972 117.06 31.7183 117.356 31.7183H117.419V33.6496Z" fill="black"/>
<path d="M123.475 15.1921C122.524 15.1921 121.763 14.9705 121.192 14.5273C120.642 14.063 120.367 13.4192 120.367 12.5961C120.367 11.7729 120.642 11.1397 121.192 10.6965C121.763 10.2322 122.524 10 123.475 10C124.447 10 125.209 10.2322 125.758 10.6965C126.329 11.1397 126.614 11.7729 126.614 12.5961C126.614 13.4192 126.329 14.063 125.758 14.5273C125.209 14.9705 124.447 15.1921 123.475 15.1921ZM126.456 17.4083V30.7686C126.456 31.1485 126.614 31.4017 126.931 31.5284C127.27 31.655 127.671 31.7183 128.136 31.7183H128.168V33.6496H118.972V31.7183H119.004C119.49 31.7183 119.892 31.655 120.209 31.5284C120.526 31.4017 120.684 31.1485 120.684 30.7686V20.5426C120.684 20.2049 120.568 19.9727 120.336 19.8461C120.103 19.7194 119.733 19.6033 119.226 19.4978L118.972 19.4345V17.4083H126.456Z" fill="black"/>
<path d="M143.362 19.9727C143.362 19.8672 143.267 19.7616 143.076 19.6561C142.886 19.5506 142.643 19.4767 142.347 19.4345C142.051 19.3712 141.744 19.3395 141.427 19.3395H141.364V17.4083H147.452V19.3395H147.389C147.156 19.3395 146.924 19.3817 146.691 19.4662C146.48 19.5295 146.29 19.6667 146.121 19.8777C145.951 20.0677 145.803 20.3315 145.677 20.6692L141.11 33.6496H135.561L130.868 20.4159C130.783 20.1205 130.667 19.8988 130.519 19.7511C130.371 19.6033 130.181 19.4978 129.948 19.4345C129.737 19.3712 129.472 19.3395 129.155 19.3395H129.123V17.4083H138.605V19.3395H138.542C138.225 19.3395 137.897 19.3501 137.559 19.3712C137.242 19.3923 136.977 19.4239 136.766 19.4662C136.576 19.4873 136.48 19.54 136.48 19.6245L140.413 31.2434L139.715 30.6419L143.362 19.9727Z" fill="black"/>
<path d="M154.06 25.6081C154.06 26.5579 154.144 27.4021 154.313 28.1408C154.483 28.8584 154.747 29.4705 155.106 29.9771C155.466 30.4625 155.91 30.8319 156.438 31.0852C156.988 31.3173 157.622 31.4334 158.341 31.4334C159.102 31.4334 159.757 31.2962 160.307 31.0218C160.856 30.7263 161.332 30.3464 161.734 29.8821C162.135 29.4178 162.463 28.9534 162.717 28.4891L164.683 29.8821C164.281 30.6841 163.753 31.3912 163.097 32.0033C162.442 32.6154 161.649 33.1008 160.719 33.4596C159.81 33.7973 158.721 33.9662 157.453 33.9662C155.614 33.9662 153.996 33.6285 152.601 32.9531C151.227 32.2777 150.159 31.3173 149.398 30.0721C148.637 28.8057 148.257 27.3071 148.257 25.5764C148.257 23.8879 148.627 22.4105 149.366 21.1441C150.128 19.8566 151.153 18.8646 152.442 18.1681C153.753 17.4505 155.233 17.0917 156.882 17.0917C158.214 17.0917 159.377 17.2922 160.37 17.6932C161.385 18.0731 162.231 18.6536 162.907 19.4345C163.584 20.2154 164.102 21.1863 164.461 22.3472C164.82 23.508 165 24.8694 165 26.4312H153.299L153.267 24.1834H160.307L159.609 25.1015C159.588 24.0251 159.525 23.1281 159.419 22.4105C159.313 21.6929 159.155 21.123 158.943 20.7009C158.732 20.2787 158.468 19.9833 158.15 19.8144C157.833 19.6245 157.453 19.5295 157.009 19.5295C156.565 19.5295 156.163 19.6456 155.804 19.8777C155.444 20.1099 155.138 20.4687 154.884 20.9541C154.631 21.4396 154.43 22.0728 154.282 22.8537C154.134 23.6135 154.06 24.5317 154.06 25.6081Z" fill="black"/>
</svg>
